
<svg fill="#fff" version="1.0" xmlns="http://www.w3.org/2000/svg"
 width="1023.000000pt" height="681.000000pt" viewBox="0 0 1023.000000 681.000000"
 preserveAspectRatio="xMidYMid meet">

<g transform="translate(0.000000,681.000000) scale(0.100000,-0.100000)"
fill="#000000" stroke="none">
<path d="M2954 4687 c-47 -43 -57 -113 -24 -165 40 -65 3 -63 935 -60 l845 3
31 31 c59 60 49 166 -21 207 -26 16 -100 17 -879 17 l-851 0 -36 -33z"/>
<path d="M5192 4701 c-59 -38 -78 -119 -42 -178 30 -50 62 -65 158 -74 459
-43 840 -363 960 -808 23 -86 26 -115 26 -271 1 -152 -2 -186 -23 -264 -103
-393 -390 -685 -779 -794 -90 -25 -111 -27 -277 -26 -162 0 -190 3 -277 26
-194 53 -334 135 -494 289 -104 101 -140 120 -199 105 -42 -11 -85 -57 -92
-98 -11 -72 2 -100 90 -190 183 -188 416 -319 677 -380 126 -29 376 -36 511
-13 493 81 896 416 1062 881 52 144 69 240 74 409 9 260 -34 454 -149 678
-212 412 -646 698 -1098 723 -85 5 -99 3 -128 -15z"/>
<path d="M3264 4020 c-40 -16 -74 -68 -74 -113 0 -54 17 -86 59 -114 l34 -23
569 0 c619 0 602 -1 647 56 26 33 28 104 5 144 -37 62 -16 60 -646 59 -315 0
-582 -4 -594 -9z"/>
<path d="M5143 3881 c-144 -37 -231 -135 -241 -273 -8 -119 30 -198 121 -251
24 -14 95 -42 158 -61 142 -43 165 -52 200 -77 60 -43 54 -140 -10 -174 -45
-23 -148 -30 -212 -15 -30 7 -87 30 -127 52 -40 21 -83 38 -95 36 -31 -4 -67
-63 -67 -109 0 -32 7 -43 44 -76 139 -123 479 -133 629 -18 121 93 141 304 40
416 -48 53 -127 92 -265 130 -141 39 -184 62 -198 105 -40 121 165 185 330
104 88 -43 126 -32 155 45 28 72 6 104 -107 147 -41 16 -82 21 -188 24 -74 2
-149 -1 -167 -5z"/>
<path d="M3604 3361 c-59 -36 -77 -127 -36 -189 32 -49 53 -52 327 -52 244 0
258 1 286 21 59 42 76 117 39 176 -36 60 -52 63 -332 63 -230 0 -256 -2 -284
-19z"/>
</g>
</svg>
